<?xml version="1.0" standalone="no"?><!DOCTYPE svg PUBLIC "-//W3C//DTD SVG 1.1//EN" "http://www.w3.org/Graphics/SVG/1.1/DTD/svg11.dtd"><svg t="1557936404572" class="icon" style="" viewBox="0 0 1024 1024" version="1.1" xmlns="http://www.w3.org/2000/svg" p-id="1539" data-spm-anchor-id="a313x.7781069.0.i8" xmlns:xlink="http://www.w3.org/1999/xlink" width="32" height="32"><defs><style type="text/css"></style></defs><path d="M742.4 921.6h-512a25.6 25.6 0 0 1 0-51.2h512a25.6 25.6 0 0 1 0 51.2z" fill="" p-id="1540"></path><path d="M844.8 153.6a25.6 25.6 0 0 0-25.6 25.6v768a25.6 25.6 0 0 1-25.6 25.6h-563.2c-42.3424 0-76.8-34.4576-76.8-76.8S188.0576 819.2 230.4 819.2h460.8c42.3424 0 76.8-34.4576 76.8-76.8v-614.4c0-42.3424-34.4576-76.8-76.8-76.8h-512C136.8576 51.2 102.4 85.6576 102.4 128v768C102.4 966.5536 159.8464 1024 230.4 1024h563.2c42.3424 0 76.8-34.4576 76.8-76.8v-768a25.6 25.6 0 0 0-25.6-25.6z m-665.6-51.2h512a25.6 25.6 0 0 1 25.6 25.6v614.4a25.6 25.6 0 0 1-25.6 25.6h-460.8c-28.7744 0-55.3984 9.5744-76.8 25.6512V128a25.6 25.6 0 0 1 25.6-25.6z" fill="#c5c5c5" p-id="1541"></path></svg>