<svg id="Layer_1" data-name="Layer 1" xmlns="http://www.w3.org/2000/svg" viewBox="0 0 609.74 705.67"><title>icon</title><path d="M494.07,380.34,435,436.83,453,442.07c-25.71,42.2-72.1,60.77-125,64.41v-214h49a22.57,22.57,0,1,0,.05-31.92l-.05.05H328v-25.8a64.13,64.13,0,1,0-41,1.58v24.18H232.81a22.57,22.57,0,1,0-.07,31.93l.07-.07h54.25V506.27c-55.7-4.1-104.3-25.86-128.66-71.56l17.85-3.94-55.33-60.11L96.34,448.6,117.15,444C147.59,510.65,217,564.36,295.29,569.55l12.16,24.63,12.11-24.55c74.49-5,140.85-54,173.66-115.69l20.19,5.91Zm-221.91-205A32.83,32.83,0,1,1,305,208.14h0a32.83,32.83,0,0,1-32.83-32.77Z"/></svg>