<?xml version="1.0" encoding="utf-8"?>
<svg version="1.1" id="Layer_1" xmlns="http://www.w3.org/2000/svg" xmlns:xlink="http://www.w3.org/1999/xlink" x="0px" y="0px"
	 viewBox="0 0 417.1 483.4" style="enable-background:new 0 0 417.1 483.4;" xml:space="preserve">
<title>icon</title>
<path d="M397.7,269.6l-59.1,56.5l18,5.2c-25.7,42.2-72.1,60.8-125,64.4v-214h49c8.8,8.8,23.1,8.8,31.9,0s8.8-23.1,0-31.9
	c-8.8-8.8-23.1-8.8-31.9,0l0,0h-49v-25.8c33.1-12.6,49.7-49.7,37.1-82.8S219.1-8.4,186,4.2S136.3,53.9,148.9,87
	c7.1,18.7,22.6,33,41.8,38.7v24.2h-54.2c-8.8-8.8-23.1-8.9-31.9-0.1c-8.8,8.8-8.9,23.1-0.1,31.9c8.8,8.8,23.1,8.9,31.9,0.1l0.1-0.1
	h54.3v213.8C135,391.4,86.4,369.7,62.1,324l17.9-3.9l-55.3-60.1L0,337.9l20.8-4.6c30.4,66.6,99.8,120.4,178.1,125.5l12.2,24.6
	l12.1-24.5c74.5-5,140.9-54,173.7-115.7l20.2,5.9L397.7,269.6z M175.8,64.6c0-18.1,14.7-32.8,32.8-32.9s32.8,14.7,32.9,32.8
	s-14.7,32.8-32.8,32.9c0,0,0,0,0,0l0,0C190.6,97.4,175.9,82.7,175.8,64.6L175.8,64.6z"/>
</svg>
